<svg width="391" height="117" viewBox="0 0 391 117" fill="none" xmlns="http://www.w3.org/2000/svg">
<path d="M0.200012 102.539L10.2455 83.2585C20.939 89.5774 30.6604 92.6558 40.2197 92.6558C47.6728 92.6558 52.0474 90.3875 52.0474 86.1749C52.0474 82.4484 48.3209 79.856 37.1413 77.2636C14.4581 72.0789 4.41262 63.1676 4.41262 48.0995C4.41262 32.2212 16.5644 21.5276 39.4096 21.5276C52.8576 21.5276 65.8194 25.2542 77.3231 32.3832L67.2776 51.0159C60.6347 46.4792 49.4551 43.0767 41.0299 43.0767C34.0629 43.0767 30.8224 45.021 30.8224 48.5855C30.8224 52.6361 34.0629 54.7424 46.2146 57.4968C69.2219 62.6815 79.2673 72.0789 79.2673 86.1749C79.2673 103.673 64.1992 114.691 40.8678 114.691C26.1237 114.529 12.3518 110.316 0.200012 102.539Z" fill="white"/>
<path d="M149.585 111.288C142.618 114.367 134.193 114.529 126.902 114.529C105.029 114.529 98.7101 101.891 98.7101 79.3699V45.021H84.4521V22.4998H99.1962L99.6823 0.950684H127.064V22.4998H149.261V45.021H127.064V76.6155C127.064 84.3926 131.925 86.661 138.73 86.661C141.97 86.661 145.697 85.8508 149.585 84.2306V111.288Z" fill="white"/>
<path d="M391 112.909C384.033 115.987 375.608 116.149 368.317 116.149C346.444 116.149 340.125 103.511 340.125 80.9902V46.6412H325.867V24.12H340.611L341.097 2.57092H368.479V24.12H390.676V46.6412H368.479V78.2358C368.479 86.0129 373.34 88.2812 380.144 88.2812C383.385 88.2812 387.111 87.4711 391 85.8509V112.909Z" fill="white"/>
<path d="M244.369 57.4968V113.395H219.903L219.417 102.377C212.126 109.668 200.785 114.529 188.795 114.529C170.162 114.529 158.011 103.187 158.011 86.4989C158.011 67.7043 172.917 56.3626 197.382 56.3626C204.349 56.3626 211.154 57.1728 218.445 59.117V56.8487C218.445 47.2893 212.45 43.0767 199.165 43.0767C189.767 43.0767 181.666 45.3451 170.972 49.8817L164.167 30.2769C177.939 23.958 188.471 21.5276 203.053 21.5276C229.463 21.6897 244.369 34.6515 244.369 57.4968ZM212.774 77.2636C207.914 75.6434 206.294 75.6434 201.433 75.6434C193.332 75.6434 188.471 80.018 188.471 86.985C188.471 90.2255 191.873 93.4659 199.813 93.4659C209.534 93.4659 211.964 87.147 212.774 77.2636Z" fill="white"/>
<path d="M322.464 25.5782L321.33 60.0892C317.279 58.793 313.391 58.469 309.988 58.469C301.887 58.469 288.925 70.6207 288.925 86.0129L289.087 114.529H260.733V24.7681H288.925V47.1273C293.786 37.4059 298.647 32.5452 306.748 27.6845C310.15 25.5782 317.927 24.12 322.464 25.5782Z" fill="white"/>
</svg>
